<svg width="121" height="38" viewBox="0 0 121 38" fill="none" xmlns="http://www.w3.org/2000/svg">
<path d="M10.0891 29.7756C18.7607 29.7756 24.0136 24.4669 24.0136 15.6649C24.0136 6.89034 18.7607 1.60912 10.1724 1.60912H0V29.7756H10.0891ZM6.01731 24.6732V6.71155H9.85282C15.1892 6.71155 18.0102 9.40717 18.0102 15.6649C18.0102 21.9501 15.1892 24.6732 9.83892 24.6732H6.01731Z" fill="#2060DF"/>
<path d="M36.5223 30.1882C41.8031 30.1882 45.3606 27.6439 46.1944 23.7242L40.7191 23.3666C40.1215 24.9757 38.5929 25.8147 36.6196 25.8147C33.6595 25.8147 31.7835 23.8755 31.7835 20.726V20.7123H46.3195V19.1031C46.3195 11.924 41.9281 8.37568 36.286 8.37568C30.0047 8.37568 25.9329 12.7904 25.9329 19.3094C25.9329 26.0072 29.9491 30.1882 36.5223 30.1882ZM31.7835 17.0814C31.9085 14.6746 33.7568 12.7492 36.3833 12.7492C38.9542 12.7492 40.733 14.5646 40.7469 17.0814H31.7835Z" fill="#2060DF"/>
<path d="M66.3776 14.6746C65.8495 10.7825 62.681 8.37568 57.2891 8.37568C51.8276 8.37568 48.2284 10.8788 48.2423 14.9497C48.2284 18.1129 50.2434 20.1621 54.4124 20.9873L58.109 21.7163C59.9712 22.0876 60.8189 22.7615 60.8467 23.8205C60.8189 25.072 59.4431 25.966 57.3725 25.966C55.2601 25.966 53.8566 25.072 53.4953 23.3529L47.6725 23.6554C48.2284 27.6989 51.7026 30.1882 57.3586 30.1882C62.8895 30.1882 66.8501 27.3963 66.864 23.2291C66.8501 20.1759 64.835 18.3467 60.6938 17.5078L56.8305 16.7376C54.8432 16.3113 54.1067 15.6374 54.1206 14.6196C54.1067 13.3543 55.552 12.5291 57.3864 12.5291C59.4431 12.5291 60.666 13.6431 60.9578 15.0047L66.3776 14.6746Z" fill="#2060DF"/>
<path d="M69.0264 29.7756H74.9465V8.65074H69.0264V29.7756ZM72.0004 5.92762C73.7652 5.92762 75.2105 4.59356 75.2105 2.95693C75.2105 1.33406 73.7652 0 72.0004 0C70.2494 0 68.8041 1.33406 68.8041 2.95693C68.8041 4.59356 70.2494 5.92762 72.0004 5.92762Z" fill="#2060DF"/>
<path d="M87.74 38C93.8407 38 98.1765 35.2494 98.1765 29.9819V8.65074H92.2981V12.1991H92.0758C91.2837 10.4799 89.5466 8.37568 85.9751 8.37568C81.2919 8.37568 77.3313 11.979 77.3313 19.1719C77.3313 26.1998 81.1807 29.473 85.989 29.473C89.3937 29.473 91.2976 27.7814 92.0758 26.0347H92.3259V29.8994C92.3259 32.6638 90.4499 33.7915 87.879 33.7915C85.2664 33.7915 83.9462 32.6638 83.4598 31.5223L77.9844 32.2512C78.6932 35.4419 81.9867 38 87.74 38ZM87.8651 25.072C84.9606 25.072 83.3764 22.789 83.3764 19.1444C83.3764 15.5548 84.9328 13.038 87.8651 13.038C90.7417 13.038 92.3537 15.4448 92.3537 19.1444C92.3537 22.8715 90.7139 25.072 87.8651 25.072Z" fill="#2060DF"/>
<path d="M107.242 17.5628C107.256 14.8397 108.896 13.2443 111.286 13.2443C113.662 13.2443 115.094 14.7847 115.08 17.3703V29.7756H121V16.325C121 11.4014 118.082 8.37568 113.635 8.37568C110.466 8.37568 108.173 9.91603 107.214 12.3779H106.964V8.65074H101.322V29.7756H107.242V17.5628Z" fill="#2060DF"/>
</svg>
