<svg width="134" height="33" viewBox="0 0 134 33" fill="none" xmlns="http://www.w3.org/2000/svg">
<path d="M22.9979 29.4207C20.7623 30.6203 18.2669 31.2501 15.7315 31.2546C13.0338 31.2864 10.3793 30.5742 8.05769 29.1956C5.78773 27.8532 3.91656 25.9268 2.63779 23.6157C1.31783 21.2443 0.638589 18.568 0.667383 15.8521C0.643587 13.1438 1.32226 10.4758 2.63677 8.11004C3.91127 5.79013 5.78344 3.85612 8.05769 2.51005C10.3802 1.13092 13.0359 0.418643 15.7346 0.451056C18.4333 0.418643 21.089 1.13092 23.4115 2.51005C25.688 3.85963 27.5655 5.79268 28.8511 8.11072C30.1783 10.4721 30.8646 13.1414 30.8415 15.8521C30.8564 18.115 30.3874 20.3548 29.4663 22.4205C28.5903 24.4206 27.2752 26.1963 25.6192 27.6151L27.6392 30.6783L25.0291 32.4474L22.9979 29.4207ZM15.7315 27.919C17.6026 27.9026 19.4444 27.451 21.112 26.5998L19.8119 24.6627L14.0446 24.6852V21.5376H21.4808L23.697 24.8075C24.8378 23.6888 25.7325 22.3429 26.3234 20.8564C26.9662 19.2676 27.2879 17.5666 27.2698 15.8521C27.3084 13.6733 26.7776 11.5223 25.7302 9.61316C24.747 7.83143 23.2997 6.35111 21.5429 5.33031C19.7801 4.30137 17.7734 3.7679 15.7339 3.78598C13.7006 3.76612 11.7001 4.29985 9.94525 5.33031C8.1905 6.36317 6.74439 7.84968 5.75792 9.63462C4.70274 11.5338 4.16474 13.6782 4.19802 15.8521C4.16456 18.0264 4.70257 20.1712 5.75792 22.0707C6.74444 23.8555 8.19055 25.3419 9.94525 26.3746C11.7001 27.4051 13.7006 27.9388 15.7339 27.919H15.7315ZM35.6312 1.1098H40.6806L50.043 25.2833H50.2074L59.5674 1.1098H64.6169V30.5958H61.1684V11.8585L61.3331 6.2578H61.1687L51.5622 30.5958H48.6882L39.0817 6.25746H38.9174L39.0817 11.8581V30.5958H35.6336L35.6324 15.8528L35.6312 1.1098ZM71.1821 1.1098H74.6305V30.5958H71.1855L71.1821 1.1098ZM81.1988 1.1098H85.4683L100.205 24.5834H100.369L100.212 18.9003V1.1098H103.701V30.5958H100.088L84.6524 6.01051H84.488L84.6524 11.6936V30.5975H81.2025L81.1988 1.1098ZM110.264 1.1098H119.132C122.142 1.1098 124.77 1.73425 127.014 2.98316C129.207 4.1789 131.006 5.98922 132.19 8.19315C133.427 10.5523 134.049 13.1871 133.997 15.8521C134.049 18.5174 133.427 21.1525 132.19 23.5118C131.007 25.715 129.209 27.525 127.018 28.7211C124.773 29.97 122.146 30.5945 119.135 30.5945H110.268L110.264 1.1098ZM119.132 27.2599C122.607 27.2599 125.365 26.2578 127.404 24.2536C129.443 22.2495 130.463 19.449 130.465 15.8521C130.465 12.2557 129.446 9.45534 127.407 7.45096C125.368 5.44657 122.611 4.44449 119.135 4.44472H113.716V27.2592L119.132 27.2599Z" fill="#141414"/>
</svg>
