<svg width="58" height="107" viewBox="0 0 58 107" fill="none" xmlns="http://www.w3.org/2000/svg">
<path d="M29.8335 104.07V85.7089L56.2278 69.7673V88.1286L29.8335 104.07Z" fill="#D6D6D6" stroke="#141414"/>
<path d="M1.8335 88.3018V69.9406L28.2278 85.8821V104.243L1.8335 88.3018Z" fill="#D6D6D6" stroke="#141414"/>
<path d="M1.58301 69.0922L9.40368 64.1956" stroke="#141414" stroke-width="3" stroke-linecap="round"/>
<path d="M56.162 69.0919L48.3413 64.1956" stroke="#141414" stroke-width="3" stroke-linecap="round"/>
<path d="M1.58301 69.0922L28.8723 85.7284" stroke="#141414" stroke-width="3" stroke-linecap="round"/>
<path d="M1.58301 88.6217L28.8723 105.258" stroke="#141414" stroke-width="3" stroke-linecap="round"/>
<path d="M56.1619 69.0922L28.8726 85.7284" stroke="#141414" stroke-width="3" stroke-linecap="round"/>
<path d="M56.1619 88.6217L28.8726 105.258" stroke="#141414" stroke-width="3" stroke-linecap="round"/>
<path d="M1.58301 69.0919V88.6214" stroke="#141414" stroke-width="3" stroke-linecap="round"/>
<path d="M28.8726 85.7281V105.258" stroke="#141414" stroke-width="3" stroke-linecap="round"/>
<path d="M56.1616 69.0919V88.6214" stroke="#141414" stroke-width="3" stroke-linecap="round"/>
<path d="M29.7886 53.8992V35.538L56.1829 19.5964V37.9577L29.7886 53.8992Z" fill="#D6D6D6" stroke="#141414"/>
<path d="M1.8335 37.7908V19.4295L28.2278 35.3711V53.7324L1.8335 37.7908Z" fill="#D6D6D6" stroke="#141414"/>
<path d="M2.32186 18.2476L28.6889 2.25802L55.0657 18.5372L28.6936 34.3435L2.32186 18.2476Z" fill="#D6D6D6" stroke="#141414"/>
<path d="M1.58301 18.5157L28.8723 1.87952" stroke="#141414" stroke-width="3" stroke-linecap="round"/>
<path d="M56.1619 18.5157L28.8726 1.87952" stroke="#141414" stroke-width="3" stroke-linecap="round"/>
<path d="M1.58301 18.5157L28.8723 35.1518" stroke="#141414" stroke-width="3" stroke-linecap="round"/>
<path d="M1.58301 38.0452L28.8723 54.6813" stroke="#141414" stroke-width="3" stroke-linecap="round"/>
<path d="M56.1619 18.5157L28.8726 35.1518" stroke="#141414" stroke-width="3" stroke-linecap="round"/>
<path d="M56.1619 38.0452L28.8726 54.6813" stroke="#141414" stroke-width="3" stroke-linecap="round"/>
<path d="M1.58301 18.5157V38.0452" stroke="#141414" stroke-width="3" stroke-linecap="round"/>
<path d="M28.8726 35.1519V54.3477" stroke="#141414" stroke-width="3" stroke-linecap="round"/>
<path d="M56.1616 18.5157V38.0452" stroke="#141414" stroke-width="3" stroke-linecap="round"/>
<path d="M15.228 77.4102V46.3631" stroke="black" stroke-width="3" stroke-linecap="round"/>
<path d="M21.8838 80.3868V50.6759" stroke="black" stroke-width="3" stroke-linecap="round"/>
<path d="M22 65.8719L28.6667 59.8531" stroke="black" stroke-width="3" stroke-linecap="round"/>
<path d="M28.8726 73.2091V55.1819" stroke="black" stroke-width="3" stroke-linecap="round"/>
<path d="M42.5171 77.4102V46.3631" stroke="black" stroke-width="3" stroke-linecap="round"/>
<path d="M35.3623 67.5347V51.5105" stroke="black" stroke-width="3" stroke-linecap="round"/>
<path d="M28.8726 73.2094L36.5269 80.3868" stroke="black" stroke-width="3" stroke-linecap="round"/>
<path d="M15.311 59.7702C17.0561 59.7702 18.4707 58.3512 18.4707 56.6007C18.4707 54.8502 17.0561 53.4311 15.311 53.4311C13.566 53.4311 12.1514 54.8502 12.1514 56.6007C12.1514 58.3512 13.566 59.7702 15.311 59.7702Z" fill="#4392F7" stroke="#141414" stroke-width="3"/>
<path d="M42.8267 59.7702C44.5717 59.7702 45.9863 58.3512 45.9863 56.6007C45.9863 54.8502 44.5717 53.4311 42.8267 53.4311C41.0816 53.4311 39.667 54.8502 39.667 56.6007C39.667 58.3512 41.0816 59.7702 42.8267 59.7702Z" fill="#4392F7" stroke="#141414" stroke-width="3"/>
<path d="M35.4453 70.4531C37.1904 70.4531 38.605 69.0341 38.605 67.2836C38.605 65.5331 37.1904 64.1141 35.4453 64.1141C33.7003 64.1141 32.2856 65.5331 32.2856 67.2836C32.2856 69.0341 33.7003 70.4531 35.4453 70.4531Z" fill="#F8D247" stroke="#141414" stroke-width="3"/>
<path d="M21.8267 69.2016C23.5717 69.2016 24.9863 67.7825 24.9863 66.032C24.9863 64.2816 23.5717 62.8625 21.8267 62.8625C20.0816 62.8625 18.667 64.2816 18.667 66.032C18.667 67.7825 20.0816 69.2016 21.8267 69.2016Z" fill="#F8D247" stroke="#141414" stroke-width="3"/>
<path d="M21.8267 80.4684C23.5717 80.4684 24.9863 79.0493 24.9863 77.2988C24.9863 75.5483 23.5717 74.1293 21.8267 74.1293C20.0816 74.1293 18.667 75.5483 18.667 77.2988C18.667 79.0493 20.0816 80.4684 21.8267 80.4684Z" fill="#E9344C" stroke="#141414" stroke-width="3"/>
</svg>
